<svg width="1448" height="519" viewBox="0 0 1448 519" fill="none" xmlns="http://www.w3.org/2000/svg">
<g filter="url(#filter0_d_404_15)">
<path d="M4 125.101C4 102.319 21.3895 83.3053 44.0806 81.2759L925.011 2.49087C928.656 2.1649 932.327 2.29489 935.94 2.87785L1407.01 78.8915C1428.33 82.3316 1444 100.735 1444 122.33V467C1444 491.301 1424.3 511 1400 511H48C23.6995 511 4 491.301 4 467V125.101Z" fill="black"/>
<path d="M4 123.101C4 100.319 21.3895 81.3053 44.0806 79.2759L925.011 0.490874C928.656 0.164901 932.327 0.294893 935.94 0.877848L1407.01 76.8915C1428.33 80.3316 1444 98.7347 1444 120.33V465C1444 489.301 1424.3 509 1400 509H48C23.6995 509 4 489.301 4 465V123.101Z" fill="url(#paint0_linear_404_15)"/>
</g>
<defs>
<filter id="filter0_d_404_15" x="0" y="0.315918" width="1448" height="518.684" filterUnits="userSpaceOnUse" color-interpolation-filters="sRGB">
<feFlood flood-opacity="0" result="BackgroundImageFix"/>
<feColorMatrix in="SourceAlpha" type="matrix" values="0 0 0 0 0 0 0 0 0 0 0 0 0 0 0 0 0 0 127 0" result="hardAlpha"/>
<feOffset dy="4"/>
<feGaussianBlur stdDeviation="2"/>
<feComposite in2="hardAlpha" operator="out"/>
<feColorMatrix type="matrix" values="0 0 0 0 0 0 0 0 0 0 0 0 0 0 0 0 0 0 0.25 0"/>
<feBlend mode="normal" in2="BackgroundImageFix" result="effect1_dropShadow_404_15"/>
<feBlend mode="normal" in="SourceGraphic" in2="effect1_dropShadow_404_15" result="shape"/>
</filter>
<linearGradient id="paint0_linear_404_15" x1="4" y1="134" x2="1401.59" y2="600.93" gradientUnits="userSpaceOnUse">
<stop stop-color="#00D1FF" stop-opacity="0.3"/>
<stop offset="0.55" stop-color="#1D6EE7" stop-opacity="0.5"/>
</linearGradient>
</defs>
</svg>
